<?xml version="1.0" standalone="no"?>
<!DOCTYPE svg PUBLIC "-//W3C//DTD SVG 20010904//EN"
 "http://www.w3.org/TR/2001/REC-SVG-20010904/DTD/svg10.dtd">
<svg version="1.0" xmlns="http://www.w3.org/2000/svg"
 width="3578.000000pt" height="1842.000000pt" viewBox="0 0 3578.000000 1842.000000"
 preserveAspectRatio="xMidYMid meet">
<metadata>
Created by potrace 1.16, written by Peter Selinger 2001-2019
</metadata>
<g transform="translate(0.000000,1842.000000) scale(0.100000,-0.100000)"
fill="#ffffff" stroke="none">
<path d="M11596 17651 c-3 -4 -24 -11 -46 -15 -23 -3 -49 -11 -58 -16 -9 -5
-39 -19 -67 -30 -71 -30 -115 -53 -115 -62 0 -3 -9 -10 -20 -13 -11 -3 -26
-12 -32 -19 -7 -6 -24 -20 -38 -29 -52 -36 -154 -145 -198 -212 -26 -38 -50
-72 -54 -75 -3 -3 -10 -18 -13 -33 -4 -15 -11 -27 -15 -27 -5 0 -11 -14 -15
-31 -4 -17 -13 -42 -21 -57 -8 -15 -14 -37 -14 -49 0 -13 -4 -23 -8 -23 -4 0
-10 -16 -11 -35 -4 -34 -5 -9841 -2 -9898 1 -15 6 -27 11 -27 6 0 10 -10 10
-22 0 -13 6 -35 14 -50 8 -15 17 -40 21 -57 4 -17 11 -31 16 -31 5 0 9 -6 9
-13 0 -23 108 -180 163 -236 80 -83 164 -151 187 -151 5 0 10 -4 10 -8 0 -12
133 -77 200 -98 30 -9 63 -21 72 -25 23 -12 12433 -12 12456 0 9 4 42 16 72
25 67 21 200 86 200 98 0 4 6 8 13 8 8 0 22 9 32 20 10 11 22 20 27 20 20 0
161 142 204 205 14 22 29 42 33 45 3 3 17 28 31 55 14 28 28 52 32 55 3 3 10
18 14 34 4 17 13 41 20 55 8 14 14 35 14 47 0 11 3 24 7 28 4 4 10 22 12 39 8
53 6 9840 -1 9872 -23 95 -58 199 -70 203 -4 2 -8 9 -8 16 0 6 -25 50 -55 96
-56 86 -167 208 -217 238 -16 9 -28 19 -28 23 0 4 -13 12 -30 19 -16 7 -30 16
-30 20 0 4 -8 10 -17 14 -10 3 -25 10 -33 15 -8 6 -37 20 -65 31 -27 11 -58
25 -67 30 -9 5 -35 13 -58 16 -22 4 -43 11 -46 15 -7 12 -12421 12 -12428 0z
m12307 -650 c26 -7 47 -17 47 -22 0 -5 6 -9 13 -9 17 0 97 -79 97 -97 0 -7 4
-13 9 -13 36 0 35 66 38 -4820 2 -3049 0 -4767 -7 -4824 -7 -67 -16 -98 -34
-127 -27 -40 -86 -99 -99 -99 -5 0 -15 -7 -23 -15 -9 -8 -26 -15 -39 -15 -13
0 -27 -4 -30 -10 -4 -7 -2034 -10 -6056 -10 -5543 0 -6054 1 -6100 16 -27 9
-49 20 -49 25 0 5 -6 9 -12 9 -17 0 -79 57 -102 94 -10 16 -22 43 -27 60 -14
49 -12 9615 2 9671 6 25 15 45 20 45 5 0 9 6 9 13 0 15 79 97 93 97 4 0 15 7
23 15 9 8 27 15 42 15 15 0 34 5 42 10 10 6 2164 9 6055 7 4922 -2 6049 -5
6088 -16z"/>
<path d="M13376 14511 l-228 -228 995 -994 994 -994 -988 -989 c-544 -543
-989 -993 -989 -998 0 -10 451 -460 456 -455 80 71 2444 2445 2444 2454 0 7
-5 13 -11 13 -6 0 -555 545 -1220 1210 -665 666 -1212 1210 -1217 1210 -4 0
-110 -103 -236 -229z"/>
<path d="M16530 10405 l0 -325 1590 0 1590 0 0 325 0 325 -1590 0 -1590 0 0
-325z"/>
<path d="M910 2840 l0 -130 735 0 735 0 0 130 0 130 -735 0 -735 0 0 -130z"/>
<path d="M28930 2840 l0 -130 735 0 735 0 0 130 0 130 -735 0 -735 0 0 -130z"/>
<path d="M2890 1925 l0 -1035 140 0 140 0 2 750 3 750 370 -623 371 -622 74
-3 75 -3 370 626 370 625 6 -667 c3 -368 7 -705 8 -750 l1 -83 140 0 140 0 0
1035 0 1036 -127 -3 -128 -3 -410 -701 c-225 -385 -417 -710 -425 -722 -14
-21 -34 9 -445 703 l-429 725 -123 0 -123 0 0 -1035z"/>
<path d="M5720 1925 l0 -1035 140 0 140 0 2 750 3 750 370 -623 371 -622 74
-3 75 -3 370 626 370 625 6 -667 c3 -368 7 -705 8 -750 l1 -83 140 0 140 0 0
1035 0 1036 -127 -3 -128 -3 -410 -701 c-225 -385 -417 -710 -425 -722 -14
-21 -34 9 -445 703 l-429 725 -123 0 -123 0 0 -1035z"/>
<path d="M9156 2928 c-7 -18 -210 -465 -451 -993 -241 -528 -446 -979 -456
-1002 l-18 -43 153 0 153 0 389 879 c214 484 391 877 393 875 3 -3 178 -397
391 -877 l385 -872 157 -3 156 -2 -471 1035 -470 1035 -148 0 -149 0 -14 -32z"/>
<path d="M10720 1925 l0 -1035 145 0 145 0 2 774 3 774 620 -774 620 -774 123
0 122 0 0 1035 0 1035 -145 0 -145 0 -2 -772 -3 -771 -619 771 -619 772 -124
0 -123 0 0 -1035z"/>
<path d="M13120 2830 l0 -130 464 0 c510 0 554 -4 673 -60 152 -70 243 -219
243 -397 0 -235 -133 -394 -376 -449 -55 -13 -161 -17 -536 -21 l-468 -5 0
-439 0 -439 145 0 145 0 0 310 0 310 233 0 c456 1 621 25 798 116 168 87 283
230 330 411 25 99 28 287 5 384 -59 256 -239 429 -525 507 l-96 26 -517 4
-518 3 0 -131z"/>
<path d="M15230 2841 l0 -121 513 0 c553 0 596 -4 694 -54 72 -36 110 -71 141
-130 23 -44 27 -63 27 -141 0 -78 -4 -97 -27 -141 -31 -59 -69 -94 -141 -130
-103 -53 -142 -56 -694 -61 l-513 -5 0 -119 0 -118 588 -3 c578 -3 588 -4 654
-26 139 -47 215 -126 238 -246 30 -163 -34 -299 -171 -361 -123 -55 -148 -57
-751 -62 l-558 -5 0 -115 0 -114 623 3 622 4 97 26 c190 52 325 149 386 280
38 81 52 148 52 253 0 227 -93 383 -285 475 l-86 42 43 27 c55 36 140 126 166
177 79 156 71 392 -19 527 -69 104 -193 185 -354 229 -78 22 -98 22 -662 26
l-583 3 0 -120z"/>
<path d="M18076 2928 c-7 -18 -210 -465 -451 -993 -241 -528 -446 -979 -456
-1002 l-18 -43 153 0 153 0 389 879 c214 484 391 877 393 875 3 -3 178 -397
391 -877 l385 -872 157 -3 156 -2 -471 1035 -470 1035 -148 0 -149 0 -14 -32z"/>
<path d="M19640 2830 l0 -130 464 0 c379 0 478 -3 538 -15 241 -51 378 -214
378 -450 0 -235 -134 -395 -375 -450 -57 -13 -158 -18 -537 -22 l-468 -5 0
-434 0 -434 145 0 145 0 0 310 0 310 223 0 c123 0 271 3 328 6 l104 5 220
-315 220 -316 163 0 c128 0 162 3 156 12 -4 7 -113 160 -241 340 -128 181
-233 331 -233 335 0 5 21 17 47 27 73 30 188 112 238 169 59 68 111 168 136
264 26 98 28 286 5 384 -59 256 -239 429 -525 507 l-96 26 -517 4 -518 3 0
-131z"/>
<path d="M21790 2830 l0 -130 464 0 c379 0 478 -3 538 -15 241 -51 378 -214
378 -450 0 -235 -134 -395 -375 -450 -57 -13 -158 -18 -537 -22 l-468 -5 0
-434 0 -434 145 0 145 0 0 310 0 310 223 0 c123 0 271 3 328 6 l104 5 220
-315 220 -316 163 0 c128 0 162 3 156 12 -4 7 -113 160 -241 340 -128 181
-233 331 -233 335 0 5 21 17 47 27 73 30 188 112 238 169 59 68 111 168 136
264 26 98 28 286 5 384 -59 256 -239 429 -525 507 l-96 26 -517 4 -518 3 0
-131z"/>
<path d="M24546 2928 c-7 -18 -210 -465 -451 -993 -241 -528 -446 -979 -456
-1002 l-18 -43 153 0 153 0 389 879 c214 484 391 877 393 875 3 -3 178 -397
391 -877 l385 -872 157 -3 156 -2 -471 1035 -470 1035 -148 0 -149 0 -14 -32z"/>
<path d="M26100 1925 l0 -1035 140 0 140 0 2 750 3 750 370 -623 371 -622 74
-3 75 -3 370 626 370 625 6 -667 c3 -368 7 -705 8 -750 l1 -83 140 0 140 0 0
1035 0 1036 -127 -3 -128 -3 -410 -701 c-225 -385 -417 -710 -425 -722 -14
-21 -34 9 -445 703 l-429 725 -123 0 -123 0 0 -1035z"/>
<path d="M30920 2830 l0 -129 528 -3 527 -3 90 -28 c181 -57 342 -170 431
-304 163 -246 163 -630 0 -876 -55 -82 -170 -185 -262 -234 -173 -91 -314
-112 -766 -113 l-258 0 0 400 0 400 -145 0 -145 0 0 -525 0 -525 513 0 c543 0
603 4 756 50 417 124 690 460 719 884 22 328 -60 589 -254 805 -104 115 -295
231 -464 281 -155 46 -214 50 -757 50 l-513 0 0 -130z"/>
<path d="M33936 2928 c-7 -18 -210 -465 -451 -993 -241 -528 -446 -979 -456
-1002 l-18 -43 153 0 153 0 389 879 c214 484 391 877 393 875 3 -3 178 -397
391 -877 l385 -872 157 -3 156 -2 -471 1035 -470 1035 -148 0 -149 0 -14 -32z"/>
<path d="M910 1935 l0 -125 735 0 735 0 0 125 0 125 -735 0 -735 0 0 -125z"/>
<path d="M28930 1935 l0 -125 735 0 735 0 0 125 0 125 -735 0 -735 0 0 -125z"/>
<path d="M910 1015 l0 -125 735 0 735 0 0 125 0 125 -735 0 -735 0 0 -125z"/>
<path d="M28930 1015 l0 -125 735 0 735 0 0 125 0 125 -735 0 -735 0 0 -125z"/>
</g>
</svg>
